<svg xmlns="http://www.w3.org/2000/svg" xmlns:xlink="http://www.w3.org/1999/xlink" width="1344" zoomAndPan="magnify" viewBox="0 0 1008 1295.99994" height="1728" preserveAspectRatio="xMidYMid meet" version="1.2"><defs><clipPath id="ed59cf6b4e"><path d="M 192 524 L 819 524 L 819 786 L 192 786 Z M 192 524 "/></clipPath><clipPath id="09d9f42762"><path d="M 120.351562 514.585938 L 758.363281 331.535156 L 887.429688 781.386719 L 249.421875 964.4375 Z M 120.351562 514.585938 "/></clipPath><clipPath id="5ddb799e7b"><path d="M 120.351562 514.585938 L 758.363281 331.535156 L 887.429688 781.386719 L 249.421875 964.4375 Z M 120.351562 514.585938 "/></clipPath><clipPath id="8188e157eb"><path d="M 373 545 L 620 545 L 620 634 L 373 634 Z M 373 545 "/></clipPath><clipPath id="cdda23bd0c"><path d="M 120.351562 514.585938 L 758.363281 331.535156 L 887.429688 781.386719 L 249.421875 964.4375 Z M 120.351562 514.585938 "/></clipPath><clipPath id="2c9ea19606"><path d="M 120.351562 514.585938 L 758.363281 331.535156 L 887.429688 781.386719 L 249.421875 964.4375 Z M 120.351562 514.585938 "/></clipPath><clipPath id="fe27f660ee"><path d="M 616 537 L 689 537 L 689 575 L 616 575 Z M 616 537 "/></clipPath><clipPath id="45a87a3e22"><path d="M 120.351562 514.585938 L 758.363281 331.535156 L 887.429688 781.386719 L 249.421875 964.4375 Z M 120.351562 514.585938 "/></clipPath><clipPath id="81c59b3a65"><path d="M 120.351562 514.585938 L 758.363281 331.535156 L 887.429688 781.386719 L 249.421875 964.4375 Z M 120.351562 514.585938 "/></clipPath><clipPath id="1e26cc5549"><path d="M 500 664 L 580 664 L 580 716 L 500 716 Z M 500 664 "/></clipPath><clipPath id="731377fd9c"><path d="M 120.351562 514.585938 L 758.363281 331.535156 L 887.429688 781.386719 L 249.421875 964.4375 Z M 120.351562 514.585938 "/></clipPath><clipPath id="9e9bccbfa6"><path d="M 120.351562 514.585938 L 758.363281 331.535156 L 887.429688 781.386719 L 249.421875 964.4375 Z M 120.351562 514.585938 "/></clipPath><clipPath id="0bb2a7f0cf"><path d="M 577 639 L 670 639 L 670 688 L 577 688 Z M 577 639 "/></clipPath><clipPath id="560f4abab9"><path d="M 120.351562 514.585938 L 758.363281 331.535156 L 887.429688 781.386719 L 249.421875 964.4375 Z M 120.351562 514.585938 "/></clipPath><clipPath id="4c28ca0256"><path d="M 120.351562 514.585938 L 758.363281 331.535156 L 887.429688 781.386719 L 249.421875 964.4375 Z M 120.351562 514.585938 "/></clipPath><clipPath id="a83fe76dab"><path d="M 641 604 L 700 604 L 700 665 L 641 665 Z M 641 604 "/></clipPath><clipPath id="8ddd50c6ff"><path d="M 120.351562 514.585938 L 758.363281 331.535156 L 887.429688 781.386719 L 249.421875 964.4375 Z M 120.351562 514.585938 "/></clipPath><clipPath id="c3178bd028"><path d="M 120.351562 514.585938 L 758.363281 331.535156 L 887.429688 781.386719 L 249.421875 964.4375 Z M 120.351562 514.585938 "/></clipPath><clipPath id="34aa2f341f"><path d="M 327 619 L 381 619 L 381 654 L 327 654 Z M 327 619 "/></clipPath><clipPath id="46a81195cd"><path d="M 120.351562 514.585938 L 758.363281 331.535156 L 887.429688 781.386719 L 249.421875 964.4375 Z M 120.351562 514.585938 "/></clipPath><clipPath id="f9355e5820"><path d="M 120.351562 514.585938 L 758.363281 331.535156 L 887.429688 781.386719 L 249.421875 964.4375 Z M 120.351562 514.585938 "/></clipPath><clipPath id="ab3a93b552"><path d="M 376 567 L 505 567 L 505 660 L 376 660 Z M 376 567 "/></clipPath><clipPath id="be050aaa86"><path d="M 120.351562 514.585938 L 758.363281 331.535156 L 887.429688 781.386719 L 249.421875 964.4375 Z M 120.351562 514.585938 "/></clipPath><clipPath id="6dcd22e05d"><path d="M 120.351562 514.585938 L 758.363281 331.535156 L 887.429688 781.386719 L 249.421875 964.4375 Z M 120.351562 514.585938 "/></clipPath><clipPath id="e1ea2ef42c"><path d="M 425 684 L 508 684 L 508 735 L 425 735 Z M 425 684 "/></clipPath><clipPath id="28cfa5ef74"><path d="M 120.351562 514.585938 L 758.363281 331.535156 L 887.429688 781.386719 L 249.421875 964.4375 Z M 120.351562 514.585938 "/></clipPath><clipPath id="947613d759"><path d="M 120.351562 514.585938 L 758.363281 331.535156 L 887.429688 781.386719 L 249.421875 964.4375 Z M 120.351562 514.585938 "/></clipPath><clipPath id="04c82f3957"><path d="M 343 705 L 425 705 L 425 761 L 343 761 Z M 343 705 "/></clipPath><clipPath id="b7e97b0d9b"><path d="M 120.351562 514.585938 L 758.363281 331.535156 L 887.429688 781.386719 L 249.421875 964.4375 Z M 120.351562 514.585938 "/></clipPath><clipPath id="ae8297a120"><path d="M 120.351562 514.585938 L 758.363281 331.535156 L 887.429688 781.386719 L 249.421875 964.4375 Z M 120.351562 514.585938 "/></clipPath><clipPath id="fee94b600c"><path d="M 295 721 L 363 721 L 363 766 L 295 766 Z M 295 721 "/></clipPath><clipPath id="98ed1f61f1"><path d="M 120.351562 514.585938 L 758.363281 331.535156 L 887.429688 781.386719 L 249.421875 964.4375 Z M 120.351562 514.585938 "/></clipPath><clipPath id="af285a993b"><path d="M 120.351562 514.585938 L 758.363281 331.535156 L 887.429688 781.386719 L 249.421875 964.4375 Z M 120.351562 514.585938 "/></clipPath><clipPath id="c41fe3618c"><path d="M 180 401 L 819 401 L 819 749 L 180 749 Z M 180 401 "/></clipPath><clipPath id="741b2d2e33"><path d="M 120.351562 514.585938 L 758.363281 331.535156 L 887.429688 781.386719 L 249.421875 964.4375 Z M 120.351562 514.585938 "/></clipPath><clipPath id="6619b2487c"><path d="M 120.351562 514.585938 L 758.363281 331.535156 L 887.429688 781.386719 L 249.421875 964.4375 Z M 120.351562 514.585938 "/></clipPath><clipPath id="5b48776a78"><path d="M 195 556 L 817 556 L 817 888 L 195 888 Z M 195 556 "/></clipPath><clipPath id="90c30626d5"><path d="M 120.351562 514.585938 L 758.363281 331.535156 L 887.429688 781.386719 L 249.421875 964.4375 Z M 120.351562 514.585938 "/></clipPath><clipPath id="2a75e525d4"><path d="M 120.351562 514.585938 L 758.363281 331.535156 L 887.429688 781.386719 L 249.421875 964.4375 Z M 120.351562 514.585938 "/></clipPath><clipPath id="fcdeb0624b"><path d="M 197 558 L 818 558 L 818 891 L 197 891 Z M 197 558 "/></clipPath><clipPath id="a10b830b76"><path d="M 120.351562 514.585938 L 758.363281 331.535156 L 887.429688 781.386719 L 249.421875 964.4375 Z M 120.351562 514.585938 "/></clipPath><clipPath id="e55dda2fb4"><path d="M 120.351562 514.585938 L 758.363281 331.535156 L 887.429688 781.386719 L 249.421875 964.4375 Z M 120.351562 514.585938 "/></clipPath><clipPath id="b6869bad85"><path d="M 357 630 L 369 630 L 369 644 L 357 644 Z M 357 630 "/></clipPath><clipPath id="63b13e4d80"><path d="M 120.351562 514.585938 L 758.363281 331.535156 L 887.429688 781.386719 L 249.421875 964.4375 Z M 120.351562 514.585938 "/></clipPath><clipPath id="a9b724c2f0"><path d="M 120.351562 514.585938 L 758.363281 331.535156 L 887.429688 781.386719 L 249.421875 964.4375 Z M 120.351562 514.585938 "/></clipPath><clipPath id="393ea275ec"><path d="M 400 636 L 446 636 L 446 659 L 400 659 Z M 400 636 "/></clipPath><clipPath id="f5ae2a74ec"><path d="M 120.351562 514.585938 L 758.363281 331.535156 L 887.429688 781.386719 L 249.421875 964.4375 Z M 120.351562 514.585938 "/></clipPath><clipPath id="5a4758cdfe"><path d="M 120.351562 514.585938 L 758.363281 331.535156 L 887.429688 781.386719 L 249.421875 964.4375 Z M 120.351562 514.585938 "/></clipPath><clipPath id="4d099b77e5"><path d="M 433 632 L 442 632 L 442 641 L 433 641 Z M 433 632 "/></clipPath><clipPath id="a22d4bcfea"><path d="M 120.351562 514.585938 L 758.363281 331.535156 L 887.429688 781.386719 L 249.421875 964.4375 Z M 120.351562 514.585938 "/></clipPath><clipPath id="53e164e9c5"><path d="M 120.351562 514.585938 L 758.363281 331.535156 L 887.429688 781.386719 L 249.421875 964.4375 Z M 120.351562 514.585938 "/></clipPath><clipPath id="39e6bd2723"><path d="M 428 604 L 439 604 L 439 626 L 428 626 Z M 428 604 "/></clipPath><clipPath id="7346882318"><path d="M 120.351562 514.585938 L 758.363281 331.535156 L 887.429688 781.386719 L 249.421875 964.4375 Z M 120.351562 514.585938 "/></clipPath><clipPath id="3e416b0e09"><path d="M 120.351562 514.585938 L 758.363281 331.535156 L 887.429688 781.386719 L 249.421875 964.4375 Z M 120.351562 514.585938 "/></clipPath><clipPath id="80cbb6c111"><path d="M 507 590 L 524 590 L 524 631 L 507 631 Z M 507 590 "/></clipPath><clipPath id="eda5f6da32"><path d="M 120.351562 514.585938 L 758.363281 331.535156 L 887.429688 781.386719 L 249.421875 964.4375 Z M 120.351562 514.585938 "/></clipPath><clipPath id="d9f37106c5"><path d="M 120.351562 514.585938 L 758.363281 331.535156 L 887.429688 781.386719 L 249.421875 964.4375 Z M 120.351562 514.585938 "/></clipPath><clipPath id="10cb0b9295"><path d="M 627 561 L 638 561 L 638 570 L 627 570 Z M 627 561 "/></clipPath><clipPath id="e4ed6b8ae0"><path d="M 120.351562 514.585938 L 758.363281 331.535156 L 887.429688 781.386719 L 249.421875 964.4375 Z M 120.351562 514.585938 "/></clipPath><clipPath id="d9d0e11694"><path d="M 120.351562 514.585938 L 758.363281 331.535156 L 887.429688 781.386719 L 249.421875 964.4375 Z M 120.351562 514.585938 "/></clipPath><clipPath id="2d703a1d91"><path d="M 650 623 L 657 623 L 657 632 L 650 632 Z M 650 623 "/></clipPath><clipPath id="0eb3b40083"><path d="M 120.351562 514.585938 L 758.363281 331.535156 L 887.429688 781.386719 L 249.421875 964.4375 Z M 120.351562 514.585938 "/></clipPath><clipPath id="3f70ea1e31"><path d="M 120.351562 514.585938 L 758.363281 331.535156 L 887.429688 781.386719 L 249.421875 964.4375 Z M 120.351562 514.585938 "/></clipPath><clipPath id="5c5149f8b8"><path d="M 445 688 L 494 688 L 494 705 L 445 705 Z M 445 688 "/></clipPath><clipPath id="d0bbd0f624"><path d="M 120.351562 514.585938 L 758.363281 331.535156 L 887.429688 781.386719 L 249.421875 964.4375 Z M 120.351562 514.585938 "/></clipPath><clipPath id="ce5678abb1"><path d="M 120.351562 514.585938 L 758.363281 331.535156 L 887.429688 781.386719 L 249.421875 964.4375 Z M 120.351562 514.585938 "/></clipPath><clipPath id="a5f0b59e7d"><path d="M 342 457 L 461 457 L 461 538 L 342 538 Z M 342 457 "/></clipPath><clipPath id="72d52092ea"><path d="M 120.351562 514.585938 L 758.363281 331.535156 L 887.429688 781.386719 L 249.421875 964.4375 Z M 120.351562 514.585938 "/></clipPath><clipPath id="d8527de513"><path d="M 120.351562 514.585938 L 758.363281 331.535156 L 887.429688 781.386719 L 249.421875 964.4375 Z M 120.351562 514.585938 "/></clipPath><clipPath id="d73d4f9dbe"><path d="M 326 530 L 359 530 L 359 552 L 326 552 Z M 326 530 "/></clipPath><clipPath id="67890a207f"><path d="M 120.351562 514.585938 L 758.363281 331.535156 L 887.429688 781.386719 L 249.421875 964.4375 Z M 120.351562 514.585938 "/></clipPath><clipPath id="14df0345c9"><path d="M 120.351562 514.585938 L 758.363281 331.535156 L 887.429688 781.386719 L 249.421875 964.4375 Z M 120.351562 514.585938 "/></clipPath><clipPath id="a37db908c1"><path d="M 333 504 L 348 504 L 348 513 L 333 513 Z M 333 504 "/></clipPath><clipPath id="c56e653c23"><path d="M 120.351562 514.585938 L 758.363281 331.535156 L 887.429688 781.386719 L 249.421875 964.4375 Z M 120.351562 514.585938 "/></clipPath><clipPath id="eecee3eef5"><path d="M 120.351562 514.585938 L 758.363281 331.535156 L 887.429688 781.386719 L 249.421875 964.4375 Z M 120.351562 514.585938 "/></clipPath><clipPath id="95397dbb9d"><path d="M 354 497 L 368 497 L 368 518 L 354 518 Z M 354 497 "/></clipPath><clipPath id="7e3687ece8"><path d="M 120.351562 514.585938 L 758.363281 331.535156 L 887.429688 781.386719 L 249.421875 964.4375 Z M 120.351562 514.585938 "/></clipPath><clipPath id="c5eda92c4a"><path d="M 120.351562 514.585938 L 758.363281 331.535156 L 887.429688 781.386719 L 249.421875 964.4375 Z M 120.351562 514.585938 "/></clipPath><clipPath id="6fab0af2c5"><path d="M 309 560 L 331 560 L 331 573 L 309 573 Z M 309 560 "/></clipPath><clipPath id="79e604af64"><path d="M 120.351562 514.585938 L 758.363281 331.535156 L 887.429688 781.386719 L 249.421875 964.4375 Z M 120.351562 514.585938 "/></clipPath><clipPath id="48a8524f7a"><path d="M 120.351562 514.585938 L 758.363281 331.535156 L 887.429688 781.386719 L 249.421875 964.4375 Z M 120.351562 514.585938 "/></clipPath><clipPath id="42c63ce29a"><path d="M 289 551 L 302 551 L 302 566 L 289 566 Z M 289 551 "/></clipPath><clipPath id="3bc9611d4e"><path d="M 120.351562 514.585938 L 758.363281 331.535156 L 887.429688 781.386719 L 249.421875 964.4375 Z M 120.351562 514.585938 "/></clipPath><clipPath id="49ee9bdd37"><path d="M 120.351562 514.585938 L 758.363281 331.535156 L 887.429688 781.386719 L 249.421875 964.4375 Z M 120.351562 514.585938 "/></clipPath><clipPath id="44d4fd134a"><path d="M 305 544 L 318 544 L 318 559 L 305 559 Z M 305 544 "/></clipPath><clipPath id="da567c86d3"><path d="M 120.351562 514.585938 L 758.363281 331.535156 L 887.429688 781.386719 L 249.421875 964.4375 Z M 120.351562 514.585938 "/></clipPath><clipPath id="e4ab1ba97b"><path d="M 120.351562 514.585938 L 758.363281 331.535156 L 887.429688 781.386719 L 249.421875 964.4375 Z M 120.351562 514.585938 "/></clipPath><clipPath id="d4975f489e"><path d="M 264 478 L 333 478 L 333 552 L 264 552 Z M 264 478 "/></clipPath><clipPath id="9004466d29"><path d="M 120.351562 514.585938 L 758.363281 331.535156 L 887.429688 781.386719 L 249.421875 964.4375 Z M 120.351562 514.585938 "/></clipPath><clipPath id="bad7a1bc69"><path d="M 120.351562 514.585938 L 758.363281 331.535156 L 887.429688 781.386719 L 249.421875 964.4375 Z M 120.351562 514.585938 "/></clipPath><clipPath id="e358592dcb"><path d="M 608 687 L 647 687 L 647 730 L 608 730 Z M 608 687 "/></clipPath><clipPath id="def542e2a2"><path d="M 120.351562 514.585938 L 758.363281 331.535156 L 887.429688 781.386719 L 249.421875 964.4375 Z M 120.351562 514.585938 "/></clipPath><clipPath id="3944b8a4c0"><path d="M 120.351562 514.585938 L 758.363281 331.535156 L 887.429688 781.386719 L 249.421875 964.4375 Z M 120.351562 514.585938 "/></clipPath><clipPath id="ec9ee01f49"><path d="M 634 676 L 642 676 L 642 682 L 634 682 Z M 634 676 "/></clipPath><clipPath id="7967729878"><path d="M 120.351562 514.585938 L 758.363281 331.535156 L 887.429688 781.386719 L 249.421875 964.4375 Z M 120.351562 514.585938 "/></clipPath><clipPath id="7d04d66e5c"><path d="M 120.351562 514.585938 L 758.363281 331.535156 L 887.429688 781.386719 L 249.421875 964.4375 Z M 120.351562 514.585938 "/></clipPath><clipPath id="4e8f6781fb"><path d="M 678 661 L 707 661 L 707 694 L 678 694 Z M 678 661 "/></clipPath><clipPath id="d2ec37c855"><path d="M 120.351562 514.585938 L 758.363281 331.535156 L 887.429688 781.386719 L 249.421875 964.4375 Z M 120.351562 514.585938 "/></clipPath><clipPath id="5f294ea167"><path d="M 120.351562 514.585938 L 758.363281 331.535156 L 887.429688 781.386719 L 249.421875 964.4375 Z M 120.351562 514.585938 "/></clipPath><clipPath id="17f0733645"><path d="M 424 703 L 609 703 L 609 803 L 424 803 Z M 424 703 "/></clipPath><clipPath id="ef997234bc"><path d="M 120.351562 514.585938 L 758.363281 331.535156 L 887.429688 781.386719 L 249.421875 964.4375 Z M 120.351562 514.585938 "/></clipPath><clipPath id="cf562d9082"><path d="M 120.351562 514.585938 L 758.363281 331.535156 L 887.429688 781.386719 L 249.421875 964.4375 Z M 120.351562 514.585938 "/></clipPath><clipPath id="6bafec3a83"><path d="M 370 742 L 475 742 L 475 780 L 370 780 Z M 370 742 "/></clipPath><clipPath id="1c10c05a1d"><path d="M 120.351562 514.585938 L 758.363281 331.535156 L 887.429688 781.386719 L 249.421875 964.4375 Z M 120.351562 514.585938 "/></clipPath><clipPath id="c5f0097d36"><path d="M 120.351562 514.585938 L 758.363281 331.535156 L 887.429688 781.386719 L 249.421875 964.4375 Z M 120.351562 514.585938 "/></clipPath><clipPath id="34cf39e0eb"><path d="M 698 622 L 746 622 L 746 647 L 698 647 Z M 698 622 "/></clipPath><clipPath id="34b03ce030"><path d="M 120.351562 514.585938 L 758.363281 331.535156 L 887.429688 781.386719 L 249.421875 964.4375 Z M 120.351562 514.585938 "/></clipPath><clipPath id="e6ce80b895"><path d="M 120.351562 514.585938 L 758.363281 331.535156 L 887.429688 781.386719 L 249.421875 964.4375 Z M 120.351562 514.585938 "/></clipPath><clipPath id="6c18f8aab0"><path d="M 327 530 L 355 530 L 355 549 L 327 549 Z M 327 530 "/></clipPath><clipPath id="3e22ab9264"><path d="M 120.351562 514.585938 L 758.363281 331.535156 L 887.429688 781.386719 L 249.421875 964.4375 Z M 120.351562 514.585938 "/></clipPath><clipPath id="dd9bf6a7c8"><path d="M 120.351562 514.585938 L 758.363281 331.535156 L 887.429688 781.386719 L 249.421875 964.4375 Z M 120.351562 514.585938 "/></clipPath><clipPath id="4a2cc5e4c7"><path d="M 444 722 L 576 722 L 576 776 L 444 776 Z M 444 722 "/></clipPath><clipPath id="ea0e8b0c79"><path d="M 120.351562 514.585938 L 758.363281 331.535156 L 887.429688 781.386719 L 249.421875 964.4375 Z M 120.351562 514.585938 "/></clipPath><clipPath id="44f4f34215"><path d="M 120.351562 514.585938 L 758.363281 331.535156 L 887.429688 781.386719 L 249.421875 964.4375 Z M 120.351562 514.585938 "/></clipPath><clipPath id="48a211202e"><path d="M 576 710 L 598 710 L 598 735 L 576 735 Z M 576 710 "/></clipPath><clipPath id="53cefa07f8"><path d="M 120.351562 514.585938 L 758.363281 331.535156 L 887.429688 781.386719 L 249.421875 964.4375 Z M 120.351562 514.585938 "/></clipPath><clipPath id="b31f183936"><path d="M 120.351562 514.585938 L 758.363281 331.535156 L 887.429688 781.386719 L 249.421875 964.4375 Z M 120.351562 514.585938 "/></clipPath><clipPath id="8bd39ead77"><path d="M 615 696 L 641 696 L 641 724 L 615 724 Z M 615 696 "/></clipPath><clipPath id="95cf6c1f28"><path d="M 120.351562 514.585938 L 758.363281 331.535156 L 887.429688 781.386719 L 249.421875 964.4375 Z M 120.351562 514.585938 "/></clipPath><clipPath id="2310ccbba5"><path d="M 120.351562 514.585938 L 758.363281 331.535156 L 887.429688 781.386719 L 249.421875 964.4375 Z M 120.351562 514.585938 "/></clipPath><clipPath id="975fd9a9d1"><path d="M 684 663 L 702 663 L 702 681 L 684 681 Z M 684 663 "/></clipPath><clipPath id="413e100c0d"><path d="M 120.351562 514.585938 L 758.363281 331.535156 L 887.429688 781.386719 L 249.421875 964.4375 Z M 120.351562 514.585938 "/></clipPath><clipPath id="d4d02aef5e"><path d="M 120.351562 514.585938 L 758.363281 331.535156 L 887.429688 781.386719 L 249.421875 964.4375 Z M 120.351562 514.585938 "/></clipPath><clipPath id="17569df350"><path d="M 369 781 L 375 781 L 375 807 L 369 807 Z M 369 781 "/></clipPath><clipPath id="e1f14c553b"><path d="M 120.351562 514.585938 L 758.363281 331.535156 L 887.429688 781.386719 L 249.421875 964.4375 Z M 120.351562 514.585938 "/></clipPath><clipPath id="b255eaf4e8"><path d="M 120.351562 514.585938 L 758.363281 331.535156 L 887.429688 781.386719 L 249.421875 964.4375 Z M 120.351562 514.585938 "/></clipPath><clipPath id="301e20cdc8"><path d="M 412 767 L 434 767 L 434 799 L 412 799 Z M 412 767 "/></clipPath><clipPath id="c43eefd48d"><path d="M 120.351562 514.585938 L 758.363281 331.535156 L 887.429688 781.386719 L 249.421875 964.4375 Z M 120.351562 514.585938 "/></clipPath><clipPath id="1db0277a60"><path d="M 120.351562 514.585938 L 758.363281 331.535156 L 887.429688 781.386719 L 249.421875 964.4375 Z M 120.351562 514.585938 "/></clipPath><clipPath id="d9efd1626b"><path d="M 410 468 L 454 468 L 454 498 L 410 498 Z M 410 468 "/></clipPath><clipPath id="31750da3ea"><path d="M 120.351562 514.585938 L 758.363281 331.535156 L 887.429688 781.386719 L 249.421875 964.4375 Z M 120.351562 514.585938 "/></clipPath><clipPath id="7b20c6e9cf"><path d="M 120.351562 514.585938 L 758.363281 331.535156 L 887.429688 781.386719 L 249.421875 964.4375 Z M 120.351562 514.585938 "/></clipPath><clipPath id="58410af3dc"><path d="M 500 417 L 567 417 L 567 494 L 500 494 Z M 500 417 "/></clipPath><clipPath id="22418382c9"><path d="M 120.351562 514.585938 L 758.363281 331.535156 L 887.429688 781.386719 L 249.421875 964.4375 Z M 120.351562 514.585938 "/></clipPath><clipPath id="201bdf08db"><path d="M 120.351562 514.585938 L 758.363281 331.535156 L 887.429688 781.386719 L 249.421875 964.4375 Z M 120.351562 514.585938 "/></clipPath><clipPath id="3dc40e776f"><path d="M 191 492 L 819 492 L 819 745 L 191 745 Z M 191 492 "/></clipPath><clipPath id="4229d403d2"><path d="M 120.351562 514.585938 L 758.363281 331.535156 L 887.429688 781.386719 L 249.421875 964.4375 Z M 120.351562 514.585938 "/></clipPath><clipPath id="6935426523"><path d="M 120.351562 514.585938 L 758.363281 331.535156 L 887.429688 781.386719 L 249.421875 964.4375 Z M 120.351562 514.585938 "/></clipPath></defs><g id="386aafe2ea"><g clip-rule="nonzero" clip-path="url(#ed59cf6b4e)"><g clip-rule="nonzero" clip-path="url(#09d9f42762)"><g clip-rule="nonzero" clip-path="url(#5ddb799e7b)"><path style=" stroke:none;fill-rule:nonzero;fill:#000000;fill-opacity:1;" d="M 304.570312 622.90625 C 294.351562 626.894531 284.53125 638.734375 276.105469 645.699219 C 264.628906 655.1875 253.742188 665.519531 242.691406 675.4375 C 228.09375 688.546875 216.359375 704.941406 203.035156 719.140625 C 193.589844 729.203125 194.011719 741.882812 192.257812 748.539062 C 192.257812 748.539062 228.652344 754.09375 245.28125 768.078125 C 287.089844 803.238281 355.242188 776.757812 407.027344 759.0625 C 444.460938 746.269531 481.417969 731.839844 519.648438 721.4375 C 552.996094 712.363281 586.460938 707.050781 618.976562 694.789062 C 647.035156 684.207031 673.519531 670.015625 701.519531 659.410156 C 719.671875 652.535156 736.339844 642.5 750.207031 628.753906 C 766.773438 612.328125 776.050781 590.429688 792.773438 574.667969 C 798.03125 569.714844 804.03125 564.03125 809.792969 560.578125 C 816.992188 556.265625 822.28125 554.839844 813.398438 548.167969 C 803.15625 540.476562 785.152344 535.917969 773.152344 532.476562 C 736.652344 522 693.859375 523.964844 656.542969 528.335938 C 617.109375 532.953125 577.972656 536.609375 539.480469 547.25 C 506.023438 556.496094 473.414062 568.089844 440.128906 577.605469 C 402.863281 588.265625 367.203125 603.984375 331.042969 616.230469 C 322.121094 619.253906 307.992188 622.046875 301.308594 627.507812 "/></g></g></g><g clip-rule="nonzero" clip-path="url(#8188e157eb)"><g clip-rule="nonzero" clip-path="url(#cdda23bd0c)"><g clip-rule="nonzero" clip-path="url(#2c9ea19606)"><path style=" stroke:none;fill-rule:nonzero;fill:#f1f2f2;fill-opacity:1;" d="M 373.484375 620.535156 C 385.304688 612.113281 396.410156 600.660156 408.582031 593.015625 C 427.800781 580.949219 450.398438 572.167969 472.625 567.554688 C 494.320312 563.054688 495.855469 584.402344 501.632812 601.167969 C 505.785156 613.222656 506.570312 629.457031 521.042969 632.914062 C 533.667969 635.925781 550.878906 625.117188 562.527344 621.195312 C 576.691406 616.425781 589.621094 612.382812 603.082031 606.855469 C 623.152344 598.621094 626.777344 557.152344 604.648438 548.492188 C 582.6875 539.898438 546.3125 551.808594 524.394531 556.179688 C 513.554688 558.339844 498.007812 566.636719 489.132812 560.796875 "/></g></g></g><g clip-rule="nonzero" clip-path="url(#fe27f660ee)"><g clip-rule="nonzero" clip-path="url(#45a87a3e22)"><g clip-rule="nonzero" clip-path="url(#81c59b3a65)"><path style=" stroke:none;fill-rule:nonzero;fill:#f1f2f2;fill-opacity:1;" d="M 616.917969 543.363281 C 617.089844 543.964844 620.542969 556.148438 623.523438 560.722656 C 626.246094 564.890625 630.984375 571.429688 635.796875 573.4375 C 646.125 577.742188 666.5625 569.332031 675.105469 563.527344 C 679.191406 560.75 688.226562 555.273438 688.503906 549.429688 C 688.925781 540.472656 670.179688 542.144531 662.800781 540.507812 C 647.253906 537.054688 633.574219 536.546875 618.671875 540.066406 C 618.386719 540.132812 616.671875 540.710938 617.035156 540.585938 "/></g></g></g><g clip-rule="nonzero" clip-path="url(#1e26cc5549)"><g clip-rule="nonzero" clip-path="url(#731377fd9c)"><g clip-rule="nonzero" clip-path="url(#9e9bccbfa6)"><path style=" stroke:none;fill-rule:nonzero;fill:#f1f2f2;fill-opacity:1;" d="M 500.863281 683.074219 C 500.96875 693.3125 497.832031 710.65625 510.273438 714.6875 C 522.960938 718.796875 545.125 709.082031 557.066406 705.019531 C 574.113281 699.21875 584.1875 691.113281 576.90625 672.054688 C 571.40625 657.65625 552.605469 667.296875 541.847656 671.125 C 528.425781 675.90625 514.238281 678.242188 500.863281 683.074219 Z M 500.863281 683.074219 "/></g></g></g><g clip-rule="nonzero" clip-path="url(#0bb2a7f0cf)"><g clip-rule="nonzero" clip-path="url(#560f4abab9)"><g clip-rule="nonzero" clip-path="url(#4c28ca0256)"><path style=" stroke:none;fill-rule:nonzero;fill:#f1f2f2;fill-opacity:1;" d="M 667.355469 668.089844 C 661.128906 673.179688 645.964844 674.066406 637.519531 675.734375 C 629.453125 677.324219 621.222656 677.929688 613.171875 679.585938 C 607.417969 680.769531 597.898438 687.300781 592.957031 687.382812 C 585.460938 687.503906 574.808594 669.949219 577.882812 661.9375 C 580.878906 654.15625 599.808594 650.066406 607.183594 646.6875 C 616.800781 642.285156 628.570312 638.203125 639.253906 640.464844 C 647.332031 642.167969 669.597656 666.539062 669.652344 666.515625 "/></g></g></g><g clip-rule="nonzero" clip-path="url(#a83fe76dab)"><g clip-rule="nonzero" clip-path="url(#8ddd50c6ff)"><g clip-rule="nonzero" clip-path="url(#c3178bd028)"><path style=" stroke:none;fill-rule:nonzero;fill:#f1f2f2;fill-opacity:1;" d="M 649.210938 662.304688 C 637.3125 661.667969 641.226562 637.082031 644.195312 629.664062 C 648.792969 618.195312 663.746094 611.597656 674.65625 607.367188 C 683.25 604.03125 686.132812 601.625 690.746094 609.183594 C 694 614.511719 697.105469 623.746094 698.507812 629.847656 C 702.585938 647.628906 682.585938 648.640625 669.828125 654.363281 C 662.308594 657.734375 654.289062 661.203125 646.070312 664.125 "/></g></g></g><g clip-rule="nonzero" clip-path="url(#34aa2f341f)"><g clip-rule="nonzero" clip-path="url(#46a81195cd)"><g clip-rule="nonzero" clip-path="url(#f9355e5820)"><path style=" stroke:none;fill-rule:nonzero;fill:#f1f2f2;fill-opacity:1;" d="M 373.484375 620.535156 C 366.007812 619.457031 355.058594 624.953125 348.167969 631.234375 C 342.5 636.398438 328.113281 645.328125 327.050781 652.902344 C 333.265625 654.21875 340.757812 651.277344 347.265625 651.148438 C 354.183594 651.015625 360 651.707031 366.988281 648.957031 C 372.203125 646.902344 379.445312 643.804688 380.300781 637.832031 C 381.210938 631.476562 375.546875 625.121094 373.242188 619.6875 "/></g></g></g><g clip-rule="nonzero" clip-path="url(#ab3a93b552)"><g clip-rule="nonzero" clip-path="url(#be050aaa86)"><g clip-rule="nonzero" clip-path="url(#6dcd22e05d)"><path style=" stroke:none;fill-rule:nonzero;fill:#f1f2f2;fill-opacity:1;" d="M 377.714844 619.320312 C 377.226562 631.351562 389.238281 647.890625 398.644531 654.753906 C 409.421875 662.617188 423.410156 659.019531 435.566406 657.464844 C 454.183594 655.085938 506.734375 649.65625 504.613281 625.039062 C 503.570312 612.957031 498.605469 599.835938 495.996094 588.082031 C 492.507812 572.355469 490.121094 564.28125 472.121094 569.339844 C 449.5625 575.679688 426.105469 591 405.515625 601.246094 C 397.414062 605.277344 378.582031 613.296875 376.625 618.71875 "/></g></g></g><g clip-rule="nonzero" clip-path="url(#e1ea2ef42c)"><g clip-rule="nonzero" clip-path="url(#28cfa5ef74)"><g clip-rule="nonzero" clip-path="url(#947613d759)"><path style=" stroke:none;fill-rule:nonzero;fill:#f1f2f2;fill-opacity:1;" d="M 495.632812 684.574219 C 500.972656 693.308594 512.828125 706.351562 504.414062 716.367188 C 495.835938 726.578125 471.890625 730.089844 459.613281 732.980469 C 442.085938 737.097656 429.246094 735.570312 425.3125 715.546875 C 422.34375 700.421875 443.398438 698.628906 454.550781 696.171875 C 468.464844 693.109375 481.730469 687.570312 495.632812 684.574219 Z M 495.632812 684.574219 "/></g></g></g><g clip-rule="nonzero" clip-path="url(#04c82f3957)"><g clip-rule="nonzero" clip-path="url(#b7e97b0d9b)"><g clip-rule="nonzero" clip-path="url(#ae8297a120)"><path style=" stroke:none;fill-rule:nonzero;fill:#f1f2f2;fill-opacity:1;" d="M 346.523438 760.140625 C 354.5 761.152344 367.828125 753.867188 375.875 750.800781 C 383.554688 747.875 390.855469 744.023438 398.558594 741.160156 C 404.0625 739.113281 415.601562 739.605469 419.832031 737.054688 C 426.253906 733.183594 425.980469 712.652344 419.121094 707.488281 C 412.457031 702.480469 394.238281 709.046875 386.195312 710.09375 C 375.707031 711.457031 363.566406 714.238281 355.703125 721.820312 C 349.757812 727.546875 343.800781 760.011719 343.742188 760.023438 "/></g></g></g><g clip-rule="nonzero" clip-path="url(#fee94b600c)"><g clip-rule="nonzero" clip-path="url(#98ed1f61f1)"><g clip-rule="nonzero" clip-path="url(#af285a993b)"><path style=" stroke:none;fill-rule:nonzero;fill:#f1f2f2;fill-opacity:1;" d="M 359.109375 757.023438 C 368.859375 750.175781 352.507812 731.402344 346.054688 726.6875 C 336.078125 719.398438 319.902344 721.734375 308.40625 723.929688 C 299.351562 725.660156 295.632812 725.144531 295.726562 734 C 295.796875 740.246094 298.058594 749.722656 300.105469 755.640625 C 306.070312 772.875 323.570312 763.128906 337.414062 761.21875 C 345.582031 760.089844 354.21875 758.78125 362.738281 756.898438 "/></g></g></g><g clip-rule="nonzero" clip-path="url(#c41fe3618c)"><g clip-rule="nonzero" clip-path="url(#741b2d2e33)"><g clip-rule="nonzero" clip-path="url(#6619b2487c)"><path style=" stroke:none;fill-rule:nonzero;fill:#df0209;fill-opacity:1;" d="M 192.257812 748.539062 C 202.226562 740.328125 223.277344 730 234.519531 723.566406 C 246.113281 716.929688 257.667969 708.921875 267.957031 699.574219 C 291.472656 678.207031 313.949219 655.328125 341.039062 638.3125 C 371.855469 618.960938 406.519531 605.367188 440.871094 593.671875 C 470.640625 583.535156 502.828125 571.207031 534 567.160156 C 564.988281 563.132812 596.867188 556.222656 628.457031 554.933594 C 660.765625 553.609375 693.1875 556.710938 725.339844 560.589844 C 743.363281 562.761719 756.300781 562.214844 774.292969 558.855469 C 790.472656 555.835938 802.347656 554.074219 818.730469 554.144531 C 808.390625 530.867188 796.53125 508.449219 776.003906 491.316406 C 750.644531 470.152344 716.984375 446.5 687.648438 432.410156 C 660.4375 419.339844 550.089844 391.320312 526.878906 405.25 C 515.664062 411.980469 479.820312 445.355469 453.734375 453.734375 C 426.996094 462.320312 389.535156 451.871094 376.167969 447.945312 C 365.167969 444.71875 318.59375 472.53125 296.011719 491.191406 C 256.09375 524.175781 191.507812 624.945312 185.429688 661.691406 C 182.855469 677.253906 178.695312 692.507812 180.5625 707.9375 C 182.234375 721.738281 186.222656 743.457031 192.257812 748.539062 "/></g></g></g><g clip-rule="nonzero" clip-path="url(#5b48776a78)"><g clip-rule="nonzero" clip-path="url(#90c30626d5)"><g clip-rule="nonzero" clip-path="url(#2a75e525d4)"><path style=" stroke:none;fill-rule:nonzero;fill:#df0209;fill-opacity:1;" d="M 197.660156 750.378906 C 204.589844 761.582031 236.511719 805.128906 247.449219 814.597656 C 267.496094 831.949219 290.15625 848.273438 312.867188 862.261719 C 335.300781 876.078125 427.085938 911.660156 578.214844 863.722656 C 607.988281 854.277344 636.644531 842.859375 664.390625 829.8125 C 779.148438 775.851562 821.070312 574.761719 815.914062 556.664062 C 786.304688 555.007812 767.003906 580.21875 743.148438 593.660156 C 717.976562 607.847656 691.0625 618.738281 667.105469 634.226562 C 642.980469 649.820312 615.859375 648.40625 589.054688 659.117188 C 574.929688 664.761719 562.078125 671.179688 548.699219 678.0625 C 536.167969 684.511719 524.246094 693.3125 510.265625 697.308594 C 496.425781 701.265625 481.652344 701.023438 467.699219 702.152344 C 452.863281 703.347656 439.183594 706.714844 424.433594 710.949219 C 396.316406 719.015625 360.597656 718.125 333.335938 725.949219 C 307.15625 733.460938 197.753906 742.015625 195.710938 750.011719 "/><path style=" stroke:none;fill-rule:nonzero;fill:#df0209;fill-opacity:1;" d="M 197.660156 750.378906 C 204.589844 761.582031 236.511719 805.128906 247.449219 814.597656 C 267.496094 831.949219 290.15625 848.273438 312.867188 862.261719 C 335.300781 876.078125 427.085938 911.660156 578.214844 863.722656 C 607.988281 854.277344 636.644531 842.859375 664.390625 829.8125 C 779.148438 775.851562 821.070312 574.761719 815.914062 556.664062 C 786.304688 555.007812 767.003906 580.21875 743.148438 593.660156 C 717.976562 607.847656 691.0625 618.738281 667.105469 634.226562 C 642.980469 649.820312 615.859375 648.40625 589.054688 659.117188 C 574.929688 664.761719 562.078125 671.179688 548.699219 678.0625 C 536.167969 684.511719 524.246094 693.3125 510.265625 697.308594 C 496.425781 701.265625 481.652344 701.023438 467.699219 702.152344 C 452.863281 703.347656 439.183594 706.714844 424.433594 710.949219 C 396.316406 719.015625 360.597656 718.125 333.335938 725.949219 C 307.15625 733.460938 197.753906 742.015625 195.710938 750.011719 "/></g></g></g><g clip-rule="nonzero" clip-path="url(#fcdeb0624b)"><g clip-rule="nonzero" clip-path="url(#a10b830b76)"><g clip-rule="nonzero" clip-path="url(#e55dda2fb4)"><path style=" stroke:none;fill-rule:nonzero;fill:#940707;fill-opacity:1;" d="M 199.164062 750.769531 C 200.96875 752.351562 202.566406 752.183594 204.878906 752.035156 C 204.757812 753.863281 205.636719 757.105469 205.277344 758.820312 C 205.96875 757.132812 207.328125 755.621094 208.140625 753.988281 C 208.246094 755.980469 209.445312 758.460938 209.414062 760.496094 C 209.917969 760.453125 210.417969 760.410156 210.917969 760.375 C 212.539062 763.113281 213.601562 765.917969 214.628906 769.089844 C 217.792969 768.820312 221.140625 767.304688 223.488281 765.890625 C 224.386719 769.957031 223.429688 773.96875 225.414062 777.886719 C 226.039062 778.253906 227.625 778.921875 228.339844 779.144531 C 230.34375 774.984375 232.796875 771.355469 237.835938 770.996094 C 235.8125 774.890625 233.804688 780.207031 234.609375 784.46875 C 235.316406 783.738281 236.511719 782.757812 237.253906 782.066406 C 237.273438 783.925781 238.078125 785.988281 237.746094 788.152344 C 237.820312 788.257812 238.515625 786.773438 238.71875 787.132812 C 238.949219 788.519531 239.792969 790.675781 240.460938 791.945312 C 243.226562 787.828125 246.699219 783.089844 251.660156 781.664062 C 249.957031 786.523438 249.359375 791.601562 250.832031 796.320312 C 251.546875 795.269531 253.289062 793.929688 254.066406 792.789062 C 254.691406 796.136719 255.09375 799.65625 256.417969 802.960938 C 256.792969 802.40625 257.753906 801.316406 258.191406 800.757812 C 260.910156 807.421875 263.25 809.445312 267.636719 813.425781 C 270.808594 810.113281 274.910156 806.148438 279.058594 803.035156 C 279.300781 810.609375 276.34375 817.730469 282.566406 823.796875 C 283.0625 823.210938 284.539062 822.304688 285.1875 821.425781 C 285.765625 822.742188 286.757812 824.828125 286.945312 826.210938 C 287.3125 826.15625 287.507812 825.953125 287.53125 825.597656 C 287.738281 827.1875 288.421875 828.753906 288.964844 830.203125 C 292.601562 826.894531 296.625 822.136719 301.175781 819.609375 C 303.015625 825.988281 300.394531 832.234375 303.347656 838.925781 C 304.105469 838.511719 304.605469 837.972656 305.410156 837.644531 C 305.996094 839.210938 308.003906 840.816406 308.242188 843.035156 C 308.648438 842.238281 309.730469 841.074219 310.21875 840.117188 C 313.371094 844.703125 317.363281 852 322.164062 854.609375 C 322.546875 848.515625 327.597656 843.226562 329.367188 837.367188 C 330.9375 842.582031 333.121094 847.273438 334.5625 852.679688 C 334.832031 851.175781 335.617188 849.757812 335.90625 848.269531 C 345.414062 865.574219 347.546875 853.25 349.324219 839.886719 C 351.113281 846.589844 353.871094 853.550781 352.328125 860.332031 C 352.792969 858.328125 354.03125 857.628906 354.78125 856.433594 C 354.964844 858.679688 356.34375 860.632812 356.269531 863.070312 C 371.195312 863.132812 361.289062 849.6875 372.199219 846.855469 C 374.726562 853.101562 371.789062 861.339844 376.144531 866.574219 C 377.046875 866.460938 379.03125 866.363281 379.898438 866.1875 C 380.871094 864.265625 382.035156 863.964844 383.222656 862.921875 C 383.71875 864.59375 385.015625 865.707031 385.511719 867.320312 C 384.867188 867.433594 387.867188 865.015625 387.535156 865.347656 C 388.03125 866.269531 388.570312 867.433594 389.4375 868.070312 C 389.929688 861.21875 390.96875 854.789062 394.910156 848.78125 C 395.113281 854.980469 396.902344 868.011719 403.691406 869.863281 C 404.136719 868.464844 405.855469 867.140625 406.296875 865.484375 C 407.320312 865.59375 408.574219 866.332031 409.492188 867.035156 C 410.402344 867.054688 410.125 865.582031 411.5 865.796875 C 412.164062 867.328125 413.074219 868.0625 413.8125 869.503906 C 418.671875 861.796875 417.488281 850.113281 414.648438 841.292969 C 418.976562 847.453125 424.648438 853.390625 426.035156 861.644531 C 426.199219 862.28125 426.175781 862.261719 425.964844 861.582031 C 425.703125 860.949219 425.855469 860.605469 426.429688 860.550781 C 427.09375 862.792969 428.371094 864.59375 429.277344 866.667969 C 429.546875 865.496094 430.121094 864.320312 430.359375 863.160156 C 430.746094 863.121094 432.40625 864.152344 432.464844 864.113281 C 432.714844 864.195312 433.703125 862.925781 434.425781 862.890625 C 434.90625 863.765625 435.96875 864.875 436.59375 865.742188 C 436.839844 864.441406 438.386719 862.769531 438.789062 861.429688 C 439.652344 862.238281 441.296875 862.800781 442.28125 863.855469 C 440.527344 857.054688 441.621094 851.054688 446.050781 845.792969 C 450.167969 851.0625 450.527344 857.96875 455.957031 862.933594 C 456.460938 862.910156 456.554688 861.332031 456.734375 861.015625 C 457.617188 861.308594 457.84375 862.816406 458.738281 863.054688 C 458.957031 862.039062 459.5 860.878906 460.28125 859.820312 C 462.546875 861.683594 464.65625 861.179688 467.039062 861.496094 C 466.355469 861.695312 467.632812 859.308594 467.535156 859.570312 C 468.515625 860.285156 470.058594 860.808594 470.890625 861.605469 C 472.257812 857.863281 470.613281 853.101562 471.734375 849.390625 C 474.382812 853.933594 478.71875 856.996094 482.492188 860.5625 C 482.511719 859.449219 482.660156 858.382812 482.644531 857.253906 C 483.746094 858.191406 486.480469 858.808594 487.851562 860.171875 C 488.609375 859.394531 489.292969 858.757812 489.921875 857.722656 C 491.804688 858.195312 494.5 858.078125 495.339844 858.246094 C 501.03125 860.078125 508.722656 858.769531 514.222656 859.902344 C 514.726562 855.078125 514.1875 850.59375 511.464844 846.300781 L 517.523438 858.160156 C 518.152344 853.515625 518.117188 848.824219 518.132812 844.164062 C 517.921875 843.542969 517.890625 843.550781 518.039062 844.191406 C 520.863281 847.875 521.714844 853.457031 522.9375 858.113281 C 523.621094 856.816406 525.070312 855.867188 525.746094 854.75 C 526.277344 855.488281 528.777344 856.917969 529.265625 857.671875 C 529.859375 856.636719 531.503906 855.03125 531.929688 854.117188 C 533.042969 855.066406 534.417969 855.273438 535.199219 855.765625 C 536.796875 850.046875 535.894531 844.261719 535.734375 838.652344 C 538.871094 842.59375 539.386719 851.140625 543.65625 853.496094 C 544.273438 852.453125 545.640625 851.054688 546.132812 850.066406 C 546.957031 850.613281 547.875 851.492188 548.734375 852.039062 C 549.691406 851.671875 549.464844 850.136719 550.164062 849.847656 C 550.320312 849.882812 552.070312 850.671875 552.050781 850.679688 C 550.769531 845.660156 551.164062 840.574219 549.664062 835.5 C 553.230469 838.601562 557.195312 841.238281 560.335938 844.59375 C 560.832031 843.257812 562.328125 841.636719 562.671875 840.695312 C 563.144531 842.148438 564.765625 843.515625 565.234375 845.246094 C 567.8125 843.027344 570.730469 841.25 573.132812 843.898438 C 573.671875 843.257812 575.859375 842.144531 576.636719 841.316406 C 578.855469 844.609375 584.960938 845.457031 588.167969 842.515625 C 591.371094 839.574219 586.527344 830.144531 594.386719 833.222656 C 594.957031 832.492188 594.824219 831.660156 595.699219 831.242188 C 596.8125 833.898438 598.761719 834.632812 600.476562 836.8125 C 600.585938 836.777344 601.246094 835.125 601.496094 834.867188 C 602.289062 835.488281 604.019531 836.535156 604.828125 836.910156 C 606.6875 830.199219 604.429688 822.707031 602.40625 815.769531 C 607 820.835938 610.738281 825.347656 612.886719 832.355469 C 612.917969 831 613.378906 829.375 613.476562 827.953125 C 614.046875 828.921875 616.570312 830.707031 617.394531 832.183594 C 618.089844 830.886719 620.839844 829.355469 621.457031 828.460938 C 622.207031 829.714844 623.726562 830.546875 624.292969 831.324219 C 624.957031 829.4375 627.3125 827.507812 627.933594 825.660156 C 628.703125 826.511719 629.980469 827.101562 630.578125 827.6875 C 635.117188 821.234375 634.773438 815.542969 632.222656 808.128906 C 635.429688 809.691406 638.839844 812.707031 640.550781 815.464844 C 640.492188 813.585938 641.785156 811.496094 641.90625 809.722656 C 642.707031 809.949219 644.074219 810.339844 644.945312 810.75 C 647.59375 806.941406 652.597656 807.960938 655.183594 804.148438 C 656.214844 804.046875 656.375 804.613281 657.5 804.144531 C 658.085938 801.636719 659.058594 798.855469 659.183594 796.367188 C 658.972656 795.746094 658.945312 795.757812 659.09375 796.394531 C 661.21875 799.996094 663.019531 803.757812 667.289062 805 C 669.015625 800.71875 672.726562 798.027344 677.386719 799.359375 C 679.242188 796.226562 679.105469 796.121094 682.210938 794.289062 C 681.257812 789.476562 681.695312 784.933594 677.644531 781.402344 C 684.175781 785.582031 690.71875 784.824219 692.5625 794.132812 C 694.363281 790.894531 696.125 787.691406 699.605469 787.515625 C 700.453125 786.359375 700.675781 785.105469 701.3125 783.859375 C 706.6875 781.238281 701.113281 775.742188 700.558594 770.9375 C 705.234375 771.976562 710.503906 773.273438 711.851562 778.472656 C 712.808594 776.21875 714.535156 773.109375 715.828125 771.246094 C 716.429688 770.378906 720.234375 768.175781 721.515625 765.542969 C 724.835938 758.738281 722.128906 756.464844 716.496094 752.445312 C 722.738281 753.449219 726.757812 754.789062 731.703125 758.839844 C 730.828125 752.242188 736.539062 751.609375 737.066406 745.695312 C 737.507812 740.753906 734.261719 735.960938 730.953125 732.777344 C 735.390625 732.546875 739.613281 732.632812 743.097656 735.445312 C 743.183594 733.152344 744.875 731.953125 745.398438 729.976562 C 747.917969 729.109375 749.179688 728.089844 751.859375 727.597656 C 751.359375 725.660156 752.230469 723.742188 751.375 721.597656 C 757.628906 719.515625 756.152344 712.824219 752.4375 709.414062 C 764.917969 706.742188 770.53125 696.320312 757.394531 687.597656 C 762.453125 687.101562 766.910156 689.675781 771.066406 692.574219 C 772.851562 688.9375 771.621094 684.636719 771.851562 680.925781 C 773.269531 680.84375 774.808594 679.855469 775.761719 679.730469 C 774.144531 678.285156 773.023438 676.015625 770.710938 675.027344 C 772.144531 675.488281 773.296875 675.195312 774.460938 675.347656 C 774.0625 673.6875 774.558594 672.667969 774.433594 671.054688 C 776.214844 671.234375 779.5 670.1875 781.363281 670.617188 C 779.351562 667.007812 777.128906 662.78125 775.519531 658.996094 C 778.96875 659.71875 782.632812 660.320312 786.03125 660.785156 C 786.261719 659.667969 786.230469 657.921875 785.933594 656.707031 C 786.273438 656.5625 786.550781 656.632812 786.757812 656.921875 C 785.78125 655.277344 785.664062 653.273438 784.648438 651.585938 C 785.878906 650.0625 785.332031 649.902344 785.988281 647.5625 C 786.6875 647.015625 787.511719 647.203125 788.210938 646.65625 C 785.761719 639.234375 786.265625 634.363281 779.8125 629.191406 C 783.625 629.476562 787.109375 631.6875 790.246094 633.984375 C 790.214844 633.148438 789.722656 631.75 789.515625 630.941406 C 795.429688 631.589844 792.527344 623.324219 791.628906 619.328125 C 792.78125 619.855469 795.003906 619.914062 796.195312 620.550781 C 796.8125 617.214844 795.445312 613.78125 794.566406 610.328125 C 795.519531 609.492188 796.90625 608.042969 797.945312 607.503906 C 799.007812 608.136719 800.058594 608.359375 801.097656 608.84375 C 805.890625 597.3125 800.292969 591.808594 794.234375 581.234375 C 797.175781 582.386719 801.929688 584.21875 804.054688 587.230469 C 803.707031 586.699219 803.605469 584.859375 803.371094 584.109375 C 804.136719 585.421875 804.277344 585.738281 805.285156 586.808594 C 810.242188 581.4375 811.332031 559.035156 817.261719 558.667969 L 816.449219 562.683594 C 820.015625 566.027344 807.375 629.761719 799.976562 656.234375 C 791.960938 684.898438 780.574219 711.664062 765 737.476562 C 747.835938 765.925781 724.976562 785.929688 700.898438 808.039062 C 689.171875 818.808594 681.359375 825.074219 667.414062 831.609375 C 654.4375 837.691406 643.152344 844.78125 629.890625 850.847656 C 603.917969 862.730469 574.132812 867.554688 546.316406 875.539062 C 532.398438 879.53125 517.878906 885.019531 503.738281 886.886719 C 489.339844 888.789062 474.355469 888.371094 459.691406 889.605469 C 411.351562 893.675781 352.738281 888.574219 308.234375 862.136719 C 285.136719 848.417969 263.828125 832.511719 246.851562 812.386719 C 237.683594 801.515625 226.894531 792.03125 217.933594 781.105469 C 212.40625 774.363281 196.757812 758.519531 198.070312 750.175781 "/></g></g></g><g clip-rule="nonzero" clip-path="url(#b6869bad85)"><g clip-rule="nonzero" clip-path="url(#63b13e4d80)"><g clip-rule="nonzero" clip-path="url(#a9b724c2f0)"><path style=" stroke:none;fill-rule:nonzero;fill:#ffffff;fill-opacity:1;" d="M 358.75 633.003906 C 360.347656 637.488281 364.457031 642.003906 368.964844 643.714844 C 367.863281 638.527344 362.46875 631.050781 357.175781 630.707031 "/></g></g></g><g clip-rule="nonzero" clip-path="url(#393ea275ec)"><g clip-rule="nonzero" clip-path="url(#f5ae2a74ec)"><g clip-rule="nonzero" clip-path="url(#5a4758cdfe)"><path style=" stroke:none;fill-rule:nonzero;fill:#ffffff;fill-opacity:1;" d="M 401.316406 640.9375 C 404.449219 658.828125 430.394531 660.769531 445.667969 655.550781 C 447.90625 643.917969 434.585938 648.96875 428.394531 648.578125 C 427.105469 646.296875 425.269531 645.34375 424.5625 642.648438 C 417.679688 647.460938 414.527344 639.351562 408.453125 636.285156 C 408.179688 637.234375 408.09375 637.925781 407.898438 638.890625 C 404.550781 638.84375 405.027344 640.910156 402.128906 638.023438 C 399.863281 639.511719 400.414062 640.605469 400.472656 641.179688 "/></g></g></g><g clip-rule="nonzero" clip-path="url(#4d099b77e5)"><g clip-rule="nonzero" clip-path="url(#a22d4bcfea)"><g clip-rule="nonzero" clip-path="url(#53e164e9c5)"><path style=" stroke:none;fill-rule:nonzero;fill:#ffffff;fill-opacity:1;" d="M 435.042969 634.007812 C 434.464844 633.890625 434 632.117188 433.90625 633.308594 C 433.984375 635.78125 437.679688 643.488281 441.011719 639.480469 C 444.21875 635.621094 436.519531 629.175781 433.59375 635.339844 "/></g></g></g><g clip-rule="nonzero" clip-path="url(#39e6bd2723)"><g clip-rule="nonzero" clip-path="url(#7346882318)"><g clip-rule="nonzero" clip-path="url(#3e416b0e09)"><path style=" stroke:none;fill-rule:nonzero;fill:#ffffff;fill-opacity:1;" d="M 437.8125 621.308594 C 437.839844 620.644531 437.34375 619.679688 437.152344 619.027344 C 438.09375 622.023438 436.773438 623.347656 436.25 625.527344 C 429.359375 623.617188 428.222656 610.632812 428.699219 604.804688 C 434.828125 607.910156 436.394531 616.457031 438.296875 623 "/></g></g></g><g clip-rule="nonzero" clip-path="url(#80cbb6c111)"><g clip-rule="nonzero" clip-path="url(#eda5f6da32)"><g clip-rule="nonzero" clip-path="url(#d9f37106c5)"><path style=" stroke:none;fill-rule:nonzero;fill:#ffffff;fill-opacity:1;" d="M 515.050781 600.0625 C 512.128906 596.984375 511.503906 592.074219 507.046875 590.523438 C 507.355469 600.320312 510.691406 629.503906 522.964844 630.851562 C 524.757812 627.640625 522.976562 623.863281 521.632812 620.289062 C 520.773438 620.300781 520.136719 620.683594 519.273438 620.695312 C 516.652344 613.023438 514.636719 605 512.386719 597.167969 "/></g></g></g><g clip-rule="nonzero" clip-path="url(#10cb0b9295)"><g clip-rule="nonzero" clip-path="url(#e4ed6b8ae0)"><g clip-rule="nonzero" clip-path="url(#d9d0e11694)"><path style=" stroke:none;fill-rule:nonzero;fill:#ffffff;fill-opacity:1;" d="M 636.890625 565.105469 C 633.597656 564.597656 630.472656 562.789062 627.523438 561.269531 C 623.855469 568.203125 642.242188 573.191406 636.890625 565.105469 "/></g></g></g><g clip-rule="nonzero" clip-path="url(#2d703a1d91)"><g clip-rule="nonzero" clip-path="url(#0eb3b40083)"><g clip-rule="nonzero" clip-path="url(#3f70ea1e31)"><path style=" stroke:none;fill-rule:nonzero;fill:#ffffff;fill-opacity:1;" d="M 651.347656 625.0625 C 648.554688 628.507812 650.9375 634.152344 654.769531 629.84375 C 657.773438 626.464844 655.695312 620.707031 651.101562 624.21875 "/></g></g></g><g clip-rule="nonzero" clip-path="url(#5c5149f8b8)"><g clip-rule="nonzero" clip-path="url(#d0bbd0f624)"><g clip-rule="nonzero" clip-path="url(#ce5678abb1)"><path style=" stroke:none;fill-rule:nonzero;fill:#ffffff;fill-opacity:1;" d="M 489.28125 695.371094 C 496.476562 693.972656 493.113281 688.933594 488.128906 688.175781 C 483.773438 687.511719 477.800781 690.835938 473.746094 692.457031 C 464.929688 695.976562 454.207031 698.40625 445.65625 702.578125 C 457.503906 709.394531 480.535156 689.375 490.972656 694.886719 "/></g></g></g><g clip-rule="nonzero" clip-path="url(#a5f0b59e7d)"><g clip-rule="nonzero" clip-path="url(#72d52092ea)"><g clip-rule="nonzero" clip-path="url(#d8527de513)"><path style=" stroke:none;fill-rule:nonzero;fill:#f1f2f2;fill-opacity:1;" d="M 394.15625 507.457031 C 368.683594 512.058594 394.226562 551.441406 403.980469 532.824219 C 406.367188 528.273438 404.089844 525.925781 408.566406 522.558594 C 412.097656 519.90625 420.765625 521.488281 423.574219 518.066406 C 426.773438 514.171875 423.039062 511.0625 427.050781 507.183594 C 430.203125 504.132812 437.582031 503.355469 441.84375 501.859375 C 442.566406 493.351562 457.148438 494.632812 459.804688 484.914062 C 462.457031 475.203125 458.339844 469.269531 449.578125 465.226562 C 441.078125 461.304688 433.8125 462.539062 425.023438 459.429688 C 415.644531 456.109375 407.566406 458.476562 398.253906 460.632812 C 398.277344 465.035156 407.792969 490.445312 398.980469 486.90625 C 392.105469 484.148438 395.875 459.609375 384.722656 464.515625 C 385.960938 470.753906 390.945312 476.328125 386.882812 482.183594 C 378.835938 477.9375 381.085938 470.898438 375.59375 465.191406 C 373.667969 463.191406 368.082031 459.132812 365.066406 463.746094 C 362.988281 466.929688 367.789062 471.710938 365.734375 475.410156 C 359 470.070312 362.398438 466.097656 352.25 470.003906 C 346.261719 472.3125 339.15625 475.804688 343.453125 483.382812 C 347.058594 483.800781 368.886719 479.0625 369.40625 478.085938 C 370.015625 477.871094 372.109375 477.5 372.5 477.199219 C 380.222656 490.28125 406.8125 489.109375 409.351562 506.621094 C 402.53125 507.203125 395.699219 519.046875 397.589844 503.84375 C 396.078125 504.851562 394.535156 506.683594 393.558594 508.542969 "/></g></g></g><g clip-rule="nonzero" clip-path="url(#d73d4f9dbe)"><g clip-rule="nonzero" clip-path="url(#67890a207f)"><g clip-rule="nonzero" clip-path="url(#14df0345c9)"><path style=" stroke:none;fill-rule:nonzero;fill:#f1f2f2;fill-opacity:1;" d="M 353.578125 551.152344 C 359.960938 550.65625 359.277344 547.253906 357.964844 543.234375 C 357.835938 542.835938 351.371094 533.386719 350.882812 532.898438 C 342.890625 524.964844 343.839844 535.714844 336.203125 537.59375 C 332.222656 538.574219 329.214844 534.058594 327.304688 540.152344 C 325.546875 545.753906 331.195312 547.613281 334.847656 548.996094 C 340.859375 551.273438 350.171875 552.363281 356.359375 551.269531 "/></g></g></g><g clip-rule="nonzero" clip-path="url(#a37db908c1)"><g clip-rule="nonzero" clip-path="url(#c56e653c23)"><g clip-rule="nonzero" clip-path="url(#eecee3eef5)"><path style=" stroke:none;fill-rule:nonzero;fill:#f1f2f2;fill-opacity:1;" d="M 343.5 512.835938 C 344.300781 512.472656 346.410156 510.257812 347.9375 509.550781 C 346.101562 505.824219 337.148438 504.0625 333.136719 504.957031 C 333.265625 511.5 340.4375 511.316406 345.191406 512.347656 "/></g></g></g><g clip-rule="nonzero" clip-path="url(#95397dbb9d)"><g clip-rule="nonzero" clip-path="url(#7e3687ece8)"><g clip-rule="nonzero" clip-path="url(#c5eda92c4a)"><path style=" stroke:none;fill-rule:nonzero;fill:#f1f2f2;fill-opacity:1;" d="M 365.265625 512.085938 C 368.339844 520.128906 361.214844 517.582031 358.234375 513.1875 C 355.816406 509.621094 355.019531 502.214844 354.046875 498.042969 C 361.253906 494.589844 359.148438 505.824219 367.578125 501.488281 C 370.46875 508.675781 357.195312 507.5625 365.390625 515.710938 "/></g></g></g><g clip-rule="nonzero" clip-path="url(#6fab0af2c5)"><g clip-rule="nonzero" clip-path="url(#79e604af64)"><g clip-rule="nonzero" clip-path="url(#48a8524f7a)"><path style=" stroke:none;fill-rule:nonzero;fill:#f1f2f2;fill-opacity:1;" d="M 319.976562 561.710938 C 324.210938 563.269531 328.5 565.695312 330.355469 569.5625 C 323.402344 573.050781 319.871094 573.546875 313.726562 567.851562 C 310.980469 565.304688 306.914062 566.652344 310.949219 562.242188 C 313.769531 559.164062 318.324219 559.546875 321.066406 562.3125 "/></g></g></g><g clip-rule="nonzero" clip-path="url(#42c63ce29a)"><g clip-rule="nonzero" clip-path="url(#3bc9611d4e)"><g clip-rule="nonzero" clip-path="url(#49ee9bdd37)"><path style=" stroke:none;fill-rule:nonzero;fill:#f1f2f2;fill-opacity:1;" d="M 293.609375 552.789062 C 295.488281 556.136719 301.136719 559.601562 301.804688 565.867188 C 297.84375 566.59375 289.863281 556.753906 289.058594 552.40625 C 292.320312 550.335938 293.292969 551.621094 294.9375 554.242188 "/></g></g></g><g clip-rule="nonzero" clip-path="url(#44d4fd134a)"><g clip-rule="nonzero" clip-path="url(#da567c86d3)"><g clip-rule="nonzero" clip-path="url(#e4ab1ba97b)"><path style=" stroke:none;fill-rule:nonzero;fill:#f1f2f2;fill-opacity:1;" d="M 316.460938 552.644531 C 321.183594 561.664062 304.144531 560.605469 305.617188 549.324219 C 307.226562 536.984375 314.625 549.625 316.945312 554.335938 "/></g></g></g><g clip-rule="nonzero" clip-path="url(#d4975f489e)"><g clip-rule="nonzero" clip-path="url(#9004466d29)"><g clip-rule="nonzero" clip-path="url(#bad7a1bc69)"><path style=" stroke:none;fill-rule:nonzero;fill:#f1f2f2;fill-opacity:1;" d="M 325.585938 495.082031 C 334.191406 493.410156 332.007812 484.523438 332.667969 478.582031 C 327.613281 478.871094 329.78125 481.804688 327.09375 483.660156 C 325.792969 484.558594 323.242188 485.964844 321.480469 487.078125 C 317.085938 489.859375 312.710938 493.65625 308.394531 495.273438 C 308.167969 494.835938 307.941406 494.394531 307.710938 493.957031 C 304.347656 494.914062 302.679688 497.9375 302.550781 501.53125 C 297.886719 501.988281 294.417969 507.953125 290.816406 510.4375 C 286.960938 507.824219 287.738281 512.035156 285.167969 514.667969 C 284.253906 515.609375 285.046875 517.582031 283.949219 518.972656 C 282.945312 520.25 279.265625 520.609375 278.410156 522.324219 C 276.53125 526.085938 278.152344 532.222656 280.0625 535.734375 C 281.464844 538.222656 291.464844 546.160156 285.34375 548.945312 C 280.195312 551.285156 269.230469 539.355469 264.21875 538.214844 C 265.285156 540.417969 266.09375 541.332031 267.773438 542.714844 C 268.257812 536.339844 264.238281 528.613281 272.894531 529.078125 C 274.890625 529.1875 288.542969 538.195312 288.046875 537.148438 C 290.484375 542.265625 295.9375 545.933594 297.082031 551.652344 C 306.089844 550.039062 296.53125 540.949219 295.21875 536.753906 C 292.886719 529.3125 296.046875 526.855469 301.070312 520.632812 C 308.65625 511.230469 316.398438 500.230469 326.433594 494.835938 "/></g></g></g><g clip-rule="nonzero" clip-path="url(#e358592dcb)"><g clip-rule="nonzero" clip-path="url(#def542e2a2)"><g clip-rule="nonzero" clip-path="url(#3944b8a4c0)"><path style=" stroke:none;fill-rule:nonzero;fill:#f1f2f2;fill-opacity:1;" d="M 634.875 711.292969 C 627.980469 707.144531 618.878906 695.828125 617.113281 688.160156 C 613.984375 687.582031 611.199219 687.488281 608.359375 687.902344 C 614.242188 696.554688 618.519531 706.207031 625.414062 714.214844 C 628.484375 717.78125 646.328125 738.367188 646.945312 724.316406 C 640.109375 721.164062 640.953125 711.84375 633.058594 708.148438 "/></g></g></g><g clip-rule="nonzero" clip-path="url(#ec9ee01f49)"><g clip-rule="nonzero" clip-path="url(#7967729878)"><g clip-rule="nonzero" clip-path="url(#7d04d66e5c)"><path style=" stroke:none;fill-rule:nonzero;fill:#f1f2f2;fill-opacity:1;" d="M 640.402344 679.484375 C 640.484375 680.378906 640.949219 681.050781 640.9375 681.984375 C 637.929688 681.316406 635.375 679.402344 634.277344 676.800781 C 637.5625 676.035156 640.339844 678.488281 641.734375 680.933594 "/></g></g></g><g clip-rule="nonzero" clip-path="url(#4e8f6781fb)"><g clip-rule="nonzero" clip-path="url(#d2ec37c855)"><g clip-rule="nonzero" clip-path="url(#5f294ea167)"><path style=" stroke:none;fill-rule:nonzero;fill:#f1f2f2;fill-opacity:1;" d="M 698.070312 673.011719 C 695.878906 670.304688 689.214844 664.234375 684.71875 662.371094 C 672.636719 657.363281 682.378906 667.390625 686.574219 671.957031 C 691.070312 676.851562 692.539062 682.535156 698.246094 686.1875 C 702.070312 688.640625 707.949219 685.300781 706.554688 693.175781 C 703.597656 686.527344 704.140625 677.359375 698.675781 671.925781 "/></g></g></g><g clip-rule="nonzero" clip-path="url(#17f0733645)"><g clip-rule="nonzero" clip-path="url(#ef997234bc)"><g clip-rule="nonzero" clip-path="url(#cf562d9082)"><path style=" stroke:none;fill-rule:nonzero;fill:#f1f2f2;fill-opacity:1;" d="M 603.34375 732.246094 C 603.546875 731.644531 602.636719 731.023438 604.519531 729.984375 C 607.058594 731.410156 608.964844 735.242188 608.089844 738.433594 C 606.695312 743.519531 603.554688 740.75 601.726562 743.453125 C 599.40625 746.875 600.988281 749.304688 598.886719 752.546875 C 596.949219 755.539062 593.167969 751.941406 592.296875 757.503906 C 591.433594 756.40625 590.40625 756.410156 589.492188 754.671875 C 585.582031 754.957031 584.359375 758.414062 583.292969 760.777344 C 579.320312 749.304688 561.0625 763.960938 554.273438 765.574219 C 543.902344 768.042969 533.964844 770.125 524.1875 765.167969 C 523.378906 771.238281 519.003906 771.453125 515.105469 773.332031 C 509.417969 776.070312 507.144531 779.683594 502.320312 783.027344 C 492.671875 789.722656 480.882812 785.140625 469.617188 789.082031 C 469.664062 789.585938 469.699219 790.089844 469.714844 790.59375 C 462.515625 787.296875 453.894531 792.285156 447.582031 795.023438 C 444.390625 796.410156 441.554688 799.136719 438.265625 800.847656 C 434.890625 802.605469 438.773438 803.238281 434.207031 802.746094 C 432.410156 802.550781 431.933594 799.539062 428.660156 799.601562 C 422.421875 791.949219 424.820312 784.871094 424.257812 774.625 C 425.796875 774.074219 426.4375 772.914062 427.875 772.359375 C 427.429688 768.277344 426.167969 763.542969 428.25 759.722656 C 434.125 760.296875 441.308594 754.9375 447.15625 753.40625 C 451.449219 761.804688 465.964844 743.296875 471.195312 740.859375 C 473.839844 739.621094 476.132812 741.320312 478.410156 740.660156 C 481.578125 739.746094 483.828125 737.167969 486.40625 736.425781 C 490.304688 735.296875 499.738281 733.917969 503.96875 734.351562 C 504.503906 735.019531 504.496094 735.835938 504.898438 736.585938 C 506.453125 734.441406 507.554688 734.230469 508.007812 731.367188 C 513.550781 729.570312 516.710938 729.777344 521.933594 726.984375 C 527.585938 723.960938 529.792969 722.050781 535.996094 724.070312 C 541.703125 725.929688 543.265625 727.71875 550.128906 725.53125 C 554.027344 724.289062 560.183594 721.117188 560.242188 716.40625 C 556.238281 717.984375 551.710938 719.6875 550.765625 714.5 C 554.839844 713.132812 559.28125 710.476562 562.433594 713.597656 C 569.335938 708.734375 579.214844 707.476562 587.949219 708.132812 C 588.148438 706.484375 589.113281 705.386719 588.90625 703.488281 C 594.550781 708.242188 608.136719 727.621094 604.308594 735.628906 "/></g></g></g><g clip-rule="nonzero" clip-path="url(#6bafec3a83)"><g clip-rule="nonzero" clip-path="url(#1c10c05a1d)"><g clip-rule="nonzero" clip-path="url(#c5f0097d36)"><path style=" stroke:none;fill-rule:nonzero;fill:#f1f2f2;fill-opacity:1;" d="M 473.648438 749.601562 C 471.546875 746.984375 468.59375 744.445312 465.792969 742.539062 C 461.363281 743.414062 458.332031 746.46875 454.351562 747.390625 C 450.566406 748.273438 447.742188 744.710938 443.695312 750.496094 C 440.980469 746.539062 426.136719 749.636719 421.5 750.207031 C 415.367188 750.960938 408.722656 752.300781 403.1875 752 C 400.910156 754.765625 398.066406 756.476562 396.097656 759.675781 C 393.027344 757.847656 390.277344 761.222656 388.238281 763.875 C 387.710938 763.199219 387.570312 762.464844 387.082031 761.761719 C 383.007812 766.25 377.296875 765.007812 371.628906 765.566406 C 369.507812 770.59375 371.515625 772.046875 375.726562 772.984375 C 378.132812 773.523438 379.472656 771.472656 381.710938 771.46875 C 383.175781 771.464844 386.621094 772.855469 387.21875 772.808594 C 396.597656 772.023438 401.300781 767.0625 408.082031 761.589844 C 411.003906 762.773438 412.898438 763.574219 414.105469 766.527344 C 416.667969 763.082031 427.515625 756.523438 431.058594 761.515625 C 431.316406 761.882812 429.898438 769.617188 430.261719 771.371094 C 430.886719 774.394531 433.445312 777.117188 434.90625 779.832031 C 437.753906 774.253906 434.554688 764.828125 440.375 761.613281 C 441.824219 763.84375 443.761719 765.511719 445.179688 767.890625 C 446.121094 768.15625 447.273438 768.238281 448.328125 768.535156 C 448.503906 767.15625 450.425781 764.347656 450.394531 762.417969 C 451.039062 762.945312 451.59375 763.582031 452.261719 764.101562 C 452.585938 761.449219 454.351562 759.378906 455.65625 757.167969 C 459.789062 763.398438 461.929688 766.136719 468.941406 761.765625 C 474.789062 758.125 476.4375 753.695312 472.632812 747.160156 "/></g></g></g><g clip-rule="nonzero" clip-path="url(#34cf39e0eb)"><g clip-rule="nonzero" clip-path="url(#34b03ce030)"><g clip-rule="nonzero" clip-path="url(#e6ce80b895)"><path style=" stroke:none;fill-rule:nonzero;fill:#f1f2f2;fill-opacity:1;" d="M 699.007812 644.355469 C 695.835938 639.96875 727.449219 626.417969 732.96875 622.84375 C 736.804688 628.847656 745.714844 630.980469 745.839844 639.066406 C 740.941406 638.785156 740.023438 634.953125 735.71875 634.605469 C 735.292969 633.996094 735.4375 632.796875 734.816406 632.386719 C 723.875 632.4375 736.0625 640.203125 732.972656 644.816406 C 728.171875 642.9375 723.304688 640.421875 717.839844 639.777344 C 717.289062 640.421875 716.96875 641.363281 716.410156 641.972656 C 711.328125 642.4375 704.082031 650.222656 699.007812 644.355469 "/></g></g></g><g clip-rule="nonzero" clip-path="url(#6c18f8aab0)"><g clip-rule="nonzero" clip-path="url(#3e22ab9264)"><g clip-rule="nonzero" clip-path="url(#dd9bf6a7c8)"><path style=" stroke:none;fill-rule:nonzero;fill:#ffffff;fill-opacity:1;" d="M 354.058594 542.167969 C 350.84375 537.78125 348.714844 532.59375 343.367188 530.4375 C 341.753906 539.894531 343.925781 545.71875 330.808594 537.730469 C 329.0625 539.675781 327.945312 542.160156 327.832031 544.804688 C 334.550781 549.128906 354.121094 552.132812 350.832031 539.429688 "/></g></g></g><g clip-rule="nonzero" clip-path="url(#4a2cc5e4c7)"><g clip-rule="nonzero" clip-path="url(#ea0e8b0c79)"><g clip-rule="nonzero" clip-path="url(#44f4f34215)"><path style=" stroke:none;fill-rule:nonzero;fill:#ffffff;fill-opacity:1;" d="M 488.089844 745.476562 C 476.355469 737.550781 471.414062 748.773438 465.296875 755.40625 C 458.890625 762.355469 439.570312 763.644531 445.027344 773.492188 C 445.597656 773.785156 450.246094 775.496094 450.53125 775.574219 C 451.851562 774.117188 455.785156 772.695312 457.1875 770.34375 C 457.429688 772.003906 458.683594 773.953125 459.066406 775.597656 C 468.761719 774.683594 473.300781 766.554688 479.617188 762.652344 C 482.726562 767.136719 486.769531 768.804688 489.890625 764.621094 C 491.148438 765.628906 493.015625 766.386719 494.3125 767.066406 C 494.367188 764.675781 496.007812 761.160156 495.582031 758.074219 C 501.753906 760.496094 503.625 753.941406 506.324219 750.167969 C 507.539062 752.5 509.078125 752.695312 510.097656 753.960938 C 510.675781 753.261719 511.277344 751.558594 511.898438 751.011719 C 513.046875 751.914062 517.105469 752.699219 518.609375 753.960938 C 518.96875 751.605469 521.839844 747.652344 522.21875 745.277344 C 531.769531 754.984375 542.5 747.125 553.601562 743.777344 C 560.382812 741.730469 584.507812 740.746094 572.050781 726.273438 C 565.96875 719.214844 545.027344 723.933594 535.621094 728.144531 C 529.5 730.886719 525.464844 734.976562 518.566406 736.792969 C 512 738.527344 503.128906 735.257812 501.273438 743.765625 C 500.371094 741.894531 497.957031 740.167969 497.25 739.007812 C 496.824219 740.847656 495.25 742.457031 494.890625 744.597656 C 490.226562 742.855469 486.488281 744.628906 485.675781 749.832031 "/></g></g></g><g clip-rule="nonzero" clip-path="url(#48a211202e)"><g clip-rule="nonzero" clip-path="url(#53cefa07f8)"><g clip-rule="nonzero" clip-path="url(#b31f183936)"><path style=" stroke:none;fill-rule:nonzero;fill:#ffffff;fill-opacity:1;" d="M 586.402344 713.605469 C 583.589844 713.105469 580.015625 713.894531 576.992188 713.984375 C 574.570312 721.679688 584.566406 737.527344 593.433594 733.652344 C 601.246094 730.238281 595.867188 714.34375 592 710.875 C 597.300781 721.40625 587.039062 719.851562 583.015625 714.574219 "/></g></g></g><g clip-rule="nonzero" clip-path="url(#8bd39ead77)"><g clip-rule="nonzero" clip-path="url(#95cf6c1f28)"><g clip-rule="nonzero" clip-path="url(#2310ccbba5)"><path style=" stroke:none;fill-rule:nonzero;fill:#ffffff;fill-opacity:1;" d="M 617.328125 702.277344 C 616.441406 701.363281 617.515625 700.117188 615.777344 700.378906 C 621.9375 709.613281 632.882812 715.386719 640.527344 723.339844 C 636.824219 712.71875 625.488281 702.285156 615.964844 696.660156 C 615.660156 700.59375 617.824219 700.117188 619.585938 701.632812 "/></g></g></g><g clip-rule="nonzero" clip-path="url(#975fd9a9d1)"><g clip-rule="nonzero" clip-path="url(#413e100c0d)"><g clip-rule="nonzero" clip-path="url(#d4d02aef5e)"><path style=" stroke:none;fill-rule:nonzero;fill:#ffffff;fill-opacity:1;" d="M 686.464844 666.582031 C 689.777344 668.996094 696.625 676.964844 701.195312 680.578125 C 701.015625 673.363281 691.117188 664.476562 684.367188 663.519531 "/></g></g></g><g clip-rule="nonzero" clip-path="url(#17569df350)"><g clip-rule="nonzero" clip-path="url(#e1f14c553b)"><g clip-rule="nonzero" clip-path="url(#b255eaf4e8)"><path style=" stroke:none;fill-rule:nonzero;fill:#ffffff;fill-opacity:1;" d="M 373.988281 781.875 C 368.195312 789.164062 369.339844 798.285156 372.792969 806.542969 C 376.527344 799.996094 372.460938 794.003906 373.027344 787.035156 "/></g></g></g><g clip-rule="nonzero" clip-path="url(#301e20cdc8)"><g clip-rule="nonzero" clip-path="url(#c43eefd48d)"><g clip-rule="nonzero" clip-path="url(#1db0277a60)"><path style=" stroke:none;fill-rule:nonzero;fill:#ffffff;fill-opacity:1;" d="M 420.265625 785.6875 C 419.730469 786.988281 421.996094 787.558594 419.785156 788.167969 C 414.144531 783.394531 409.835938 774.34375 413.480469 767.519531 C 419.597656 776.824219 421.96875 792.34375 431.542969 798.660156 C 434.382812 795.128906 435.21875 772.28125 427.023438 775.199219 "/></g></g></g><g clip-rule="nonzero" clip-path="url(#d9efd1626b)"><g clip-rule="nonzero" clip-path="url(#31750da3ea)"><g clip-rule="nonzero" clip-path="url(#7b20c6e9cf)"><path style=" stroke:none;fill-rule:nonzero;fill:#ffffff;fill-opacity:1;" d="M 435.550781 477.265625 C 429.714844 473.164062 420.96875 467.851562 411.632812 469.660156 C 408.335938 474.996094 411.285156 486.957031 415.226562 491.644531 C 420.890625 498.378906 427.160156 497.605469 435.886719 496.527344 C 438.820312 487.585938 456.328125 484.921875 453.140625 474.632812 C 448.054688 458.238281 436.578125 477.683594 431.84375 477.109375 "/></g></g></g><g clip-rule="nonzero" clip-path="url(#58410af3dc)"><g clip-rule="nonzero" clip-path="url(#22418382c9)"><g clip-rule="nonzero" clip-path="url(#201bdf08db)"><path style=" stroke:none;fill-rule:nonzero;fill:#f1f2f2;fill-opacity:1;" d="M 505.980469 446.070312 C 504.21875 446.214844 502.152344 447.128906 500.582031 447.804688 C 499.796875 464.074219 500.910156 477.632812 506.328125 493.464844 C 513.65625 490.164062 512.960938 482.796875 517.089844 477.222656 C 517.84375 477.699219 518.332031 478.617188 519.085938 479.089844 C 524.792969 469.957031 530.792969 471.304688 535.582031 480.210938 C 540.417969 471.015625 540.792969 461.554688 549.339844 453.355469 C 552.667969 459.070312 557.609375 457.75 561.621094 453.480469 C 561.929688 454.113281 562.253906 454.734375 562.597656 455.34375 C 565.398438 449.140625 566.613281 435.199219 566.265625 427.550781 C 565.570312 412.3125 560.609375 419.417969 548.320312 419.390625 C 546.035156 426.394531 544.625 434.460938 539.875 439.851562 C 535.738281 438.234375 532.253906 439.589844 529.636719 442.789062 C 528.933594 440.644531 527.417969 439.867188 526.625 437.917969 C 521.367188 439.023438 517.71875 437.34375 512.894531 439.445312 C 508.203125 441.488281 509.414062 446.585938 503.722656 446.71875 "/></g></g></g><g clip-rule="nonzero" clip-path="url(#3dc40e776f)"><g clip-rule="nonzero" clip-path="url(#4229d403d2)"><g clip-rule="nonzero" clip-path="url(#6935426523)"><path style=" stroke:none;fill-rule:nonzero;fill:#940707;fill-opacity:1;" d="M 532.035156 541.160156 C 534.949219 527.847656 536.9375 513.367188 539.898438 500.265625 C 542.902344 511.398438 545.976562 522.386719 546.96875 533.085938 C 557.277344 523.949219 555.941406 508.148438 561.976562 496.367188 C 565.535156 505.707031 564.25 515.195312 567.464844 524.519531 C 568.589844 520.273438 570.796875 516.449219 574.277344 514.550781 C 574.777344 517.785156 576.410156 521.074219 576.003906 524.484375 C 577.023438 521.496094 579.136719 520.617188 580.410156 518.894531 C 580.75 520.25 581.484375 521.730469 581.96875 523.050781 C 594.859375 519.972656 597.484375 506.417969 601.785156 495.605469 C 605.5 503.46875 601.820312 512.597656 603.265625 520.570312 C 607.585938 517.214844 613.949219 515.589844 616.835938 512.25 C 620.375 508.15625 621.710938 501.574219 624.367188 496.785156 C 625.859375 506.152344 624.3125 515.183594 622.71875 524.753906 C 634.746094 518.398438 638.75 511.28125 643.230469 498.699219 C 644.863281 504.691406 644.300781 510.949219 644.59375 516.960938 C 644.613281 516.960938 645.941406 515.800781 646.636719 515.757812 C 646.890625 518.257812 647.777344 521.082031 648.042969 523.65625 C 649 522.195312 651.46875 520.402344 652.460938 518.945312 C 652.480469 521.285156 654.050781 524.472656 653.863281 526.808594 C 662.234375 523.171875 670.710938 511.351562 673.542969 502.214844 C 676.796875 510.921875 673.25 520.867188 673.316406 529.804688 C 675.117188 527.417969 678.949219 525.960938 680.847656 524.261719 C 681.160156 525.925781 682.449219 527.847656 682.722656 529.515625 C 691.882812 524.136719 696.289062 508.765625 699.257812 499.382812 C 703.921875 511.113281 692.464844 523.667969 697.738281 535.035156 C 704.523438 528.816406 710.054688 513.914062 712.058594 505.476562 C 713.386719 514.753906 709.652344 527.128906 712.546875 535.582031 C 717.21875 534.761719 721.101562 531.777344 725.195312 529.886719 C 725.078125 532.375 727.121094 536.289062 726.902344 538.785156 C 733.371094 536.632812 738.578125 529.660156 741.75 523.851562 C 742.324219 528.359375 741.476562 533.453125 742.535156 537.972656 C 743.660156 538.03125 744.570312 537.515625 745.683594 537.425781 C 746.65625 538.027344 745.855469 539.898438 746.886719 540.390625 C 747.675781 540.84375 749.125 539.792969 750.035156 539.84375 C 750.265625 541.410156 751.261719 543.570312 751.894531 545.050781 C 758.242188 544.382812 762.875 540.621094 765.757812 535.277344 C 766.085938 537.679688 768.023438 540.417969 768.410156 542.8125 C 769.375 542.453125 770.066406 541.539062 771.125 541.089844 C 771.496094 541.714844 771.726562 543.871094 772.378906 544.125 C 773.441406 543.605469 774 542.675781 775.15625 542.363281 C 775.464844 542.972656 775.777344 543.582031 776.09375 544.191406 C 777.066406 544.582031 779.328125 543.589844 780.328125 543.394531 C 780.511719 543.441406 782.019531 545.421875 782.441406 545.746094 C 783.226562 544.53125 784.285156 542.890625 784.910156 541.71875 C 784.976562 541.777344 788.171875 544.265625 788.386719 544.378906 C 789.445312 543.199219 793.121094 541.761719 794.171875 540.585938 C 796.832031 551.324219 812.777344 547.382812 818.726562 554.140625 C 801.28125 557.035156 781.257812 560.125 763.683594 561.785156 C 744.6875 563.574219 726.050781 564.066406 706.339844 560.441406 C 670.453125 553.84375 637.996094 556.140625 602.480469 557.847656 C 531.789062 561.246094 455.777344 584.410156 390.007812 614.289062 C 356.875 629.34375 326.976562 643.871094 300.023438 668.773438 C 273.527344 693.253906 248.839844 720.128906 216.105469 737.078125 C 206.871094 741.859375 207.140625 741.820312 196.554688 744.859375 L 202.550781 738.253906 C 217.8125 724.273438 197.933594 723.589844 191.113281 711.46875 C 198.367188 717.789062 216.34375 722.730469 225.375 720.535156 C 224.46875 715.253906 228.855469 712.515625 233.9375 711.90625 C 227.300781 705.675781 210.828125 703.363281 209.507812 693.679688 C 218.847656 695 229.402344 701.222656 239.804688 702.960938 C 240.519531 702.5625 244.140625 699.6875 244.886719 699 C 235.597656 690.722656 228.414062 683.03125 222.5 671.914062 C 229.308594 678.207031 236.234375 687.089844 246.644531 687.785156 C 260.746094 688.726562 259.605469 677.648438 267.472656 669.75 C 268.363281 669.484375 268.488281 670.398438 269.371094 670.0625 C 270.476562 668.863281 269.585938 667.753906 270.105469 666.578125 C 271.050781 665.921875 272.164062 666.113281 273.027344 665.351562 C 270.914062 660.398438 262.6875 658.847656 258.636719 653.78125 C 254.257812 648.308594 253.628906 641.523438 250.054688 635.917969 C 257.992188 643.816406 267.183594 657.886719 278.78125 660.089844 C 278.597656 652.464844 267.628906 646.25 263.300781 640.265625 C 258.121094 633.105469 252.933594 624.613281 251.835938 615.542969 C 262.539062 623.402344 267.820312 637.394531 280.46875 644.683594 C 278.5625 637.367188 272.742188 629.71875 269.710938 622.714844 C 276.785156 621.28125 283.515625 631.433594 292.3125 630.535156 C 291.496094 628.699219 291.726562 625.714844 290.871094 623.902344 C 297.300781 625.628906 304.121094 626.882812 310.714844 626.480469 C 309.539062 612.910156 296.566406 602.660156 297.78125 589.265625 C 303.441406 598.585938 311.785156 604.378906 319.964844 611.277344 C 319.570312 609.152344 320.777344 605.882812 320.398438 603.527344 C 326.066406 605.433594 330.660156 609.9375 335.804688 611.988281 C 336.546875 607.347656 335.457031 602.410156 335.714844 597.945312 C 337.382812 599.855469 339.546875 600.382812 341.359375 601.78125 C 341.789062 592.636719 339.039062 576.367188 331.214844 569.933594 C 340.359375 579.453125 347.074219 586.890625 354.246094 598.085938 C 367.59375 593.628906 351.019531 574.53125 354.640625 566.261719 C 359.464844 568.714844 383.511719 613.011719 382.546875 581.824219 C 388.84375 583.613281 397.5625 582 398.039062 573.652344 C 409.136719 584.320312 402.261719 547.476562 400.265625 541.203125 C 408.089844 547.59375 415.851562 563.25 418.074219 573.488281 C 420.859375 558.605469 418.910156 543.664062 417.441406 528.957031 C 425.488281 532.550781 426.441406 545.375 429.410156 553.410156 C 430.164062 549.351562 431.765625 543.824219 432.683594 539.292969 C 436.769531 542.066406 440.777344 546.910156 443.3125 551.53125 C 442.273438 545 442.328125 528.03125 444.574219 522.117188 C 451.832031 526.539062 453.707031 540.210938 457.101562 547.90625 C 460.554688 540.394531 461.203125 528.335938 467.84375 523.101562 C 468.847656 527.175781 470.765625 531.238281 473.75 534.3125 C 473.363281 520.464844 477.695312 510.449219 487.289062 501.621094 C 492.082031 511.761719 492.308594 523.332031 494.554688 533.847656 C 505.742188 532.433594 504.371094 511.726562 502.675781 503.550781 C 508.441406 511.734375 511.839844 523.546875 512.636719 533.113281 C 521.316406 531.972656 519.292969 521.8125 520.820312 515.867188 C 522.945312 507.578125 526.410156 499.207031 532.261719 492.378906 C 535.476562 501.410156 535.003906 522.070312 545.269531 525.058594 C 546.0625 517.050781 542.164062 503.460938 551.328125 499.148438 C 554.71875 507.035156 550.4375 515.59375 553.769531 523.933594 "/></g></g></g></g></svg>